<svg width="559" height="560" xmlns="http://www.w3.org/2000/svg" xmlns:xlink="http://www.w3.org/1999/xlink" xml:space="preserve" overflow="hidden"><defs><clipPath id="clip0"><rect x="1993" y="682" width="559" height="560"/></clipPath><clipPath id="clip1"><rect x="1997" y="684" width="555" height="554"/></clipPath><clipPath id="clip2"><rect x="1997" y="684" width="555" height="554"/></clipPath><clipPath id="clip3"><rect x="1997" y="684" width="555" height="554"/></clipPath></defs><g clip-path="url(#clip0)" transform="translate(-1993 -682)"><g clip-path="url(#clip1)"><g clip-path="url(#clip2)"><g clip-path="url(#clip3)"><path d="M277 253.917C248.146 253.917 225.062 230.833 225.062 201.979 225.062 173.125 248.146 150.042 277 150.042 305.854 150.042 328.937 173.125 328.937 201.979 328.937 230.833 305.854 253.917 277 253.917ZM277 80.7916C237.181 80.7916 199.671 100.412 177.165 133.883 154.658 166.777 150.042 208.904 164.469 246.414L219.292 367.602 266.612 466.86C268.344 470.9 272.383 473.208 277 473.208 281.617 473.208 285.656 470.9 287.387 466.86L334.708 367.602 389.531 246.414C403.958 208.904 399.341 166.777 376.835 133.883 354.329 100.412 316.819 80.7916 277 80.7916Z" fill="#FFFFFF" fill-rule="nonzero" fill-opacity="1" transform="matrix(1 0 0 1 1998 684)"/></g></g></g><path d="M2188 885.5C2188 838.28 2226.5 800 2274 800 2321.5 800 2360 838.28 2360 885.5 2360 932.721 2321.5 971 2274 971 2226.5 971 2188 932.721 2188 885.5ZM2206.33 885.5C2206.33 922.597 2236.63 952.671 2274 952.671 2311.37 952.671 2341.67 922.597 2341.67 885.5 2341.67 848.403 2311.37 818.329 2274 818.329 2236.63 818.329 2206.33 848.403 2206.33 885.5Z" fill="#D9D9D9" fill-rule="evenodd" fill-opacity="1"/></g></svg>